<mxfile host="app.diagrams.net" modified="2024-07-19T06:37:52.425Z" agent="Mozilla/5.0 (Macintosh; Intel Mac OS X 10_15_7) AppleWebKit/605.1.15 (KHTML, like Gecko) Version/17.5 Safari/605.1.15" version="24.7.1" etag="-BPoiaBPrqp8xdG8OUsW" type="github">
  <diagram name="페이지-1" id="2R_z4eoHojrDTDINxOmJ">
    <mxGraphModel>
      <root>
        <mxCell id="0" />
        <mxCell id="1" parent="0" />
      </root>
    </mxGraphModel>
  </diagram>
</mxfile>
